<svg width="372" height="192" fill="none" xmlns="http://www.w3.org/2000/svg"><g clip-path="url(#a)"><path d="M116.309 23.86a2.684 2.684 0 0 0 2.683-2.686 2.684 2.684 0 0 0-2.683-2.686 2.684 2.684 0 0 0-2.683 2.686 2.684 2.684 0 0 0 2.683 2.686ZM105.616 23.86a2.684 2.684 0 0 0 2.683-2.686 2.684 2.684 0 0 0-2.683-2.686 2.684 2.684 0 0 0-2.682 2.686 2.684 2.684 0 0 0 2.682 2.686ZM94.924 23.86a2.684 2.684 0 0 0 2.683-2.686 2.684 2.684 0 0 0-2.683-2.686 2.684 2.684 0 0 0-2.683 2.686 2.684 2.684 0 0 0 2.683 2.686ZM84.232 23.86a2.684 2.684 0 0 0 2.683-2.686 2.684 2.684 0 0 0-2.683-2.686 2.684 2.684 0 0 0-2.683 2.686 2.684 2.684 0 0 0 2.683 2.686ZM116.309 35.074a2.684 2.684 0 0 0 2.683-2.686 2.684 2.684 0 0 0-2.683-2.686 2.684 2.684 0 0 0-2.683 2.686 2.684 2.684 0 0 0 2.683 2.686ZM105.616 35.074a2.684 2.684 0 0 0 2.683-2.686 2.684 2.684 0 0 0-2.683-2.686 2.684 2.684 0 0 0-2.682 2.686 2.684 2.684 0 0 0 2.682 2.686ZM94.924 35.074a2.684 2.684 0 0 0 2.683-2.686 2.684 2.684 0 0 0-2.683-2.686 2.684 2.684 0 0 0-2.683 2.686 2.684 2.684 0 0 0 2.683 2.686ZM84.232 35.074a2.684 2.684 0 0 0 2.683-2.686 2.684 2.684 0 0 0-2.683-2.686 2.684 2.684 0 0 0-2.683 2.686 2.684 2.684 0 0 0 2.683 2.686ZM116.309 46.288a2.684 2.684 0 0 0 2.683-2.685 2.684 2.684 0 0 0-2.683-2.686 2.684 2.684 0 0 0-2.683 2.685 2.684 2.684 0 0 0 2.683 2.687ZM105.616 46.288a2.684 2.684 0 0 0 2.683-2.685 2.684 2.684 0 0 0-2.683-2.686 2.684 2.684 0 0 0-2.682 2.685 2.684 2.684 0 0 0 2.682 2.687ZM94.924 46.288a2.684 2.684 0 0 0 2.683-2.685 2.684 2.684 0 0 0-2.683-2.686 2.684 2.684 0 0 0-2.683 2.685 2.684 2.684 0 0 0 2.683 2.687ZM84.232 46.288a2.684 2.684 0 0 0 2.683-2.685 2.684 2.684 0 0 0-2.683-2.686 2.684 2.684 0 0 0-2.683 2.685 2.684 2.684 0 0 0 2.683 2.687ZM116.309 57.503a2.684 2.684 0 0 0 2.683-2.686 2.684 2.684 0 0 0-2.683-2.686 2.684 2.684 0 0 0-2.683 2.686 2.684 2.684 0 0 0 2.683 2.686ZM105.616 57.503a2.684 2.684 0 0 0 2.683-2.686 2.684 2.684 0 0 0-2.683-2.686 2.684 2.684 0 0 0-2.682 2.686 2.684 2.684 0 0 0 2.682 2.686ZM94.924 57.503a2.684 2.684 0 0 0 2.683-2.686 2.684 2.684 0 0 0-2.683-2.686 2.684 2.684 0 0 0-2.683 2.686 2.684 2.684 0 0 0 2.683 2.686ZM84.232 57.503a2.684 2.684 0 0 0 2.683-2.686 2.684 2.684 0 0 0-2.683-2.686 2.684 2.684 0 0 0-2.683 2.686 2.684 2.684 0 0 0 2.683 2.686ZM116.309 68.717a2.684 2.684 0 0 0 2.683-2.686 2.684 2.684 0 0 0-2.683-2.686 2.684 2.684 0 0 0-2.683 2.686 2.684 2.684 0 0 0 2.683 2.686ZM105.616 68.717a2.684 2.684 0 0 0 2.683-2.686 2.684 2.684 0 0 0-2.683-2.686 2.684 2.684 0 0 0-2.682 2.686 2.684 2.684 0 0 0 2.682 2.686ZM94.924 68.717a2.684 2.684 0 0 0 2.683-2.686 2.684 2.684 0 0 0-2.683-2.686 2.684 2.684 0 0 0-2.683 2.686 2.684 2.684 0 0 0 2.683 2.686ZM84.232 68.717a2.684 2.684 0 0 0 2.683-2.686 2.684 2.684 0 0 0-2.683-2.686 2.684 2.684 0 0 0-2.683 2.686 2.684 2.684 0 0 0 2.683 2.686ZM116.309 79.931a2.684 2.684 0 0 0 2.683-2.686 2.684 2.684 0 0 0-2.683-2.686 2.684 2.684 0 0 0-2.683 2.686 2.684 2.684 0 0 0 2.683 2.686ZM105.616 79.931a2.684 2.684 0 0 0 2.683-2.686 2.684 2.684 0 0 0-2.683-2.686 2.684 2.684 0 0 0-2.682 2.686 2.684 2.684 0 0 0 2.682 2.686ZM94.924 79.931a2.684 2.684 0 0 0 2.683-2.686 2.684 2.684 0 0 0-2.683-2.686 2.684 2.684 0 0 0-2.683 2.686 2.684 2.684 0 0 0 2.683 2.686ZM84.232 79.931a2.684 2.684 0 0 0 2.683-2.686 2.684 2.684 0 0 0-2.683-2.686 2.684 2.684 0 0 0-2.683 2.686 2.684 2.684 0 0 0 2.683 2.686Z" fill="#F2F2F2"/><path d="M92.734 150.519v.831a5.192 5.192 0 0 0 5.186 5.192h37.338a5.194 5.194 0 0 0 5.186-5.192v-.831a5.16 5.16 0 0 0-1.204-3.323 5.331 5.331 0 0 0-.875-.83s-20.527-.465-20.527-1.039H97.92a5.192 5.192 0 0 0-3.665 1.523 5.202 5.202 0 0 0-1.52 3.669Z" fill="#CCC"/><path d="M119.586 156.335h-5.393v34.889h5.393v-34.889Z" fill="#CCC"/><path d="M134.936 191.034c0 .584-8.173.226-18.254.226-10.082 0-18.254.358-18.254-.226 0-.583 8.172-5.209 18.254-5.209 10.081 0 18.254 4.626 18.254 5.209Z" fill="#CCC"/><path d="M127.521 149.815a4.477 4.477 0 0 0 .762-3.698 4.461 4.461 0 0 0-2.342-2.959l-11.43-38.994-8.705 4.268 13.973 36.988a4.486 4.486 0 0 0 1.921 5.64 4.479 4.479 0 0 0 5.821-1.245Z" fill="#A0616A"/><path d="m117.1 110.676-9.742 2.64a1.99 1.99 0 0 1-2.229-.891 2.008 2.008 0 0 1-.278-.806l-1.177-10.004a5.56 5.56 0 0 1 3.931-6.789 5.553 5.553 0 0 1 6.791 3.916l4.014 9.203a1.999 1.999 0 0 1-.03 1.666 2.01 2.01 0 0 1-1.28 1.065Z" fill="#FF5300"/><path d="M130.067 186.945h5.086l2.42-13.207h-7.507l.001 13.207Z" fill="#A0616A"/><path d="m128.77 185.283 10.016-.001c.839 0 1.669.165 2.443.487a6.39 6.39 0 0 1 3.941 5.904v.207l-16.4.001v-6.598ZM135.971 179.863c-.059 0-.119-.003-.179-.008l-7.039-.513a1.871 1.871 0 0 1-1.58-2.505l9.42-21.188a1.444 1.444 0 0 0-.081-1.163 1.445 1.445 0 0 0-.917-.73c-4.43-1.16-15.795-4.246-25.634-7.858-4.215-1.547-6.869-3.783-7.89-6.646-1.345-3.774.645-7.216.731-7.361l.066-.113 9.258.843 10.036.854 21.993 11.807a8.35 8.35 0 0 1 3.659 10.71l-10.14 22.763a1.86 1.86 0 0 1-1.703 1.108Z" fill="#2F2E41"/><path d="M113.736 90.7c5.627 0 10.189-4.567 10.189-10.2 0-5.634-4.562-10.202-10.189-10.202-5.628 0-10.19 4.568-10.19 10.201 0 5.635 4.562 10.202 10.19 10.202ZM127.163 186.53l5.086-.001 2.42-13.206h-7.507l.001 13.207Z" fill="#A0616A"/><path d="M125.865 184.867h10.017a6.376 6.376 0 0 1 5.898 3.945 6.39 6.39 0 0 1 .486 2.445v.208l-16.4.001-.001-6.599ZM133.067 181.109c-.059 0-.119-.003-.179-.008l-7.039-.513a1.871 1.871 0 0 1-1.58-2.505l9.42-21.188a1.444 1.444 0 0 0-.081-1.163 1.445 1.445 0 0 0-.918-.73c-4.429-1.16-15.794-4.246-25.633-7.858-4.215-1.547-6.869-3.783-7.89-6.646-1.345-3.774.645-7.216.73-7.361l.067-.113 9.258.843 10.036.854 21.993 11.807a8.35 8.35 0 0 1 3.659 10.71l-10.14 22.763a1.86 1.86 0 0 1-1.703 1.108Z" fill="#2F2E41"/><path d="m116.878 96.485-10.786-3.738s-6.772 5.209-3.519 18.129a32.021 32.021 0 0 1-1.41 20.069 20.69 20.69 0 0 1-1.087 2.298s12.031 14.537 23.233 3.738l-4.356-20.975s6.845-13.914-2.075-19.52ZM115.001 91.048c-1.45-2.174-2.595-5.187-.998-7.255 1.576-2.04 4.684-1.74 7.098-2.643 3.362-1.258 5.312-5.212 4.704-8.754-.608-3.541-3.448-6.477-6.83-7.678-3.383-1.201-7.197-.81-10.51.573-4.078 1.703-7.576 4.996-9.043 9.169-1.467 4.172-.682 9.182 2.36 12.39 3.263 3.438 8.383 4.354 13.12 4.299" fill="#2F2E41"/><path d="M105.522 72.51c-1.827 1.49-4.615.828-6.577-.48-1.961-1.306-3.553-3.168-5.676-4.192-3.741-1.807-8.265-.606-11.907 1.395-3.642 2.001-6.87 4.766-10.716 6.337-3.847 1.57-8.756 1.648-11.669-1.318a10.7 10.7 0 0 0 3.396 11.81 10.668 10.668 0 0 0 12.25.805c4.214-2.57 6.542-7.96 11.27-9.378 2.615-.785 5.424-.153 8.068.532 2.644.685 5.4 1.425 8.069.842 2.668-.583 5.164-2.984 4.824-5.697l-1.332-.656Z" fill="#2F2E41"/><path d="M138.692 168.631a69.708 69.708 0 0 1 0-21.172 1.79 1.79 0 0 1 1.758-1.498h16.542a1.759 1.759 0 0 1 1.392.676 1.796 1.796 0 0 1 .335 1.538 42.557 42.557 0 0 0 0 19.739 1.793 1.793 0 0 1-.335 1.539 1.762 1.762 0 0 1-1.392.675H140.45a1.79 1.79 0 0 1-1.758-1.497Z" fill="#FF5300"/><path d="M151.901 156.21h-8.68a1.244 1.244 0 0 1-1.245-1.246v-.486a1.244 1.244 0 0 1 1.245-1.246h8.68a1.248 1.248 0 0 1 1.245 1.246v.486a1.248 1.248 0 0 1-1.245 1.246ZM151.901 161.338h-8.68a1.249 1.249 0 0 1-1.245-1.246v-.487a1.244 1.244 0 0 1 1.245-1.246h8.68a1.248 1.248 0 0 1 1.245 1.246v.487a1.246 1.246 0 0 1-1.245 1.246Z" fill="#fff"/><path d="M143.042 147.946a4.458 4.458 0 0 0-.184-3.771 4.463 4.463 0 0 0-3.006-2.279l-20.8-34.899-7.363 6.31 22.761 32.32a4.48 4.48 0 0 0 8.592 2.319Z" fill="#A0616A"/><path d="m123.185 112.655-8.774 4.993a1.998 1.998 0 0 1-2.851-1.016l-3.637-9.393a5.557 5.557 0 0 1 2.112-7.556 5.545 5.545 0 0 1 7.554 2.093l6.182 7.907a2 2 0 0 1-.586 2.972Z" fill="#2F2E41"/><path d="M216.547 124.913H48.111a2.697 2.697 0 0 0-2.697 2.7 2.7 2.7 0 0 0 2.697 2.7h4.77v58.77a2.7 2.7 0 0 0 2.697 2.7 2.7 2.7 0 0 0 2.697-2.7V135.5l30.232 54.858a2.694 2.694 0 0 0 4.937-.654c.185-.69.09-1.426-.266-2.046l-31.603-57.345h144.392v.035l-31.583 57.31a2.704 2.704 0 0 0 .987 3.688 2.697 2.697 0 0 0 3.684-.988l26.912-48.835v47.56c0 .716.285 1.403.79 1.909a2.694 2.694 0 0 0 3.814 0 2.7 2.7 0 0 0 .79-1.909v-57.347l.784-1.423h4.402a2.7 2.7 0 0 0 0-5.4Z" fill="#3F3D56"/><path d="M146.849 123.252h-32.774a1.453 1.453 0 0 0 0 2.907h32.774a1.453 1.453 0 0 0 0-2.907Z" fill="#CCC"/><path d="M168.837 126.159h-36.923a2.704 2.704 0 0 1-2.697-2.699v-20.352a2.703 2.703 0 0 1 2.697-2.7h36.923a2.7 2.7 0 0 1 2.696 2.7v20.352a2.696 2.696 0 0 1-2.696 2.699Z" fill="#CCC"/><path d="M150.375 115.776a2.491 2.491 0 0 0 0-4.984 2.491 2.491 0 0 0-2.489 2.492 2.491 2.491 0 0 0 2.489 2.492Z" fill="#fff"/><path d="M197.015 76.016V3.124A3.13 3.13 0 0 1 200.135 0h57.554a3.122 3.122 0 0 1 3.12 3.124v72.892a3.13 3.13 0 0 1-3.12 3.124h-57.554a3.122 3.122 0 0 1-3.12-3.124Zm3.12-75.322a2.428 2.428 0 0 0-2.427 2.43v72.892a2.435 2.435 0 0 0 2.427 2.43h57.554a2.435 2.435 0 0 0 2.427-2.43V3.124a2.435 2.435 0 0 0-2.427-2.43h-57.554Z" fill="#E6E6E6"/><path d="M232.139 33.475V18.508a1.565 1.565 0 0 1 1.561-1.562h12.668a1.56 1.56 0 0 1 1.561 1.562v14.967a1.565 1.565 0 0 1-1.561 1.562H233.7a1.56 1.56 0 0 1-1.561-1.562Z" fill="#FF5300"/><path d="M207.523 40.418V25.45a1.565 1.565 0 0 1 1.56-1.563h12.669a1.562 1.562 0 0 1 1.56 1.563v14.967a1.564 1.564 0 0 1-1.56 1.562h-12.669a1.56 1.56 0 0 1-1.56-1.562Z" fill="#CCC"/><path d="M227.286 61.591V46.624a1.564 1.564 0 0 1 1.56-1.562h12.669a1.565 1.565 0 0 1 1.56 1.562V61.59a1.565 1.565 0 0 1-1.56 1.562h-12.669a1.562 1.562 0 0 1-1.56-1.562Z" fill="#FF6584"/><path d="M323.903 7.595a2.684 2.684 0 0 0 2.683-2.686 2.684 2.684 0 0 0-2.683-2.686 2.684 2.684 0 0 0-2.683 2.686 2.684 2.684 0 0 0 2.683 2.686ZM323.903 18.3a2.684 2.684 0 0 0 2.683-2.686 2.684 2.684 0 0 0-2.683-2.686 2.684 2.684 0 0 0-2.683 2.686 2.684 2.684 0 0 0 2.683 2.686ZM323.903 29.005a2.684 2.684 0 0 0 2.683-2.686 2.684 2.684 0 0 0-2.683-2.686 2.684 2.684 0 0 0-2.683 2.686 2.684 2.684 0 0 0 2.683 2.686ZM323.903 39.71a2.684 2.684 0 0 0 2.683-2.687 2.684 2.684 0 0 0-2.683-2.686 2.684 2.684 0 0 0-2.683 2.686 2.684 2.684 0 0 0 2.683 2.686ZM312.701 7.595a2.684 2.684 0 0 0 2.683-2.686 2.684 2.684 0 0 0-2.683-2.686 2.684 2.684 0 0 0-2.682 2.686 2.684 2.684 0 0 0 2.682 2.686ZM312.701 18.3a2.684 2.684 0 0 0 2.683-2.686 2.684 2.684 0 0 0-2.683-2.686 2.684 2.684 0 0 0-2.682 2.686 2.684 2.684 0 0 0 2.682 2.686ZM312.701 29.005a2.684 2.684 0 0 0 2.683-2.686 2.684 2.684 0 0 0-2.683-2.686 2.684 2.684 0 0 0-2.682 2.686 2.684 2.684 0 0 0 2.682 2.686ZM312.701 39.71a2.684 2.684 0 0 0 2.683-2.687 2.684 2.684 0 0 0-2.683-2.686 2.684 2.684 0 0 0-2.682 2.686 2.684 2.684 0 0 0 2.682 2.686ZM301.5 7.595a2.684 2.684 0 0 0 2.683-2.686 2.684 2.684 0 0 0-2.683-2.686 2.684 2.684 0 0 0-2.683 2.686 2.684 2.684 0 0 0 2.683 2.686ZM301.5 18.3a2.684 2.684 0 0 0 2.683-2.686 2.684 2.684 0 0 0-2.683-2.686 2.684 2.684 0 0 0-2.683 2.686A2.684 2.684 0 0 0 301.5 18.3ZM301.5 29.005a2.684 2.684 0 0 0 2.683-2.686 2.684 2.684 0 0 0-2.683-2.686 2.684 2.684 0 0 0-2.683 2.686 2.684 2.684 0 0 0 2.683 2.686ZM301.5 39.71a2.684 2.684 0 0 0 2.683-2.687 2.684 2.684 0 0 0-2.683-2.686 2.684 2.684 0 0 0-2.683 2.686 2.684 2.684 0 0 0 2.683 2.686ZM290.299 7.595a2.684 2.684 0 0 0 2.682-2.686 2.684 2.684 0 0 0-2.682-2.686 2.684 2.684 0 0 0-2.683 2.686 2.684 2.684 0 0 0 2.683 2.686ZM290.299 18.3a2.684 2.684 0 0 0 2.682-2.686 2.684 2.684 0 0 0-2.682-2.686 2.684 2.684 0 0 0-2.683 2.686 2.684 2.684 0 0 0 2.683 2.686ZM290.299 29.005a2.684 2.684 0 0 0 2.682-2.686 2.684 2.684 0 0 0-2.682-2.686 2.684 2.684 0 0 0-2.683 2.686 2.684 2.684 0 0 0 2.683 2.686ZM290.299 39.71a2.684 2.684 0 0 0 2.682-2.687 2.684 2.684 0 0 0-2.682-2.686 2.684 2.684 0 0 0-2.683 2.686 2.684 2.684 0 0 0 2.683 2.686ZM279.097 7.595a2.684 2.684 0 0 0 2.683-2.686 2.684 2.684 0 0 0-2.683-2.686 2.684 2.684 0 0 0-2.682 2.686 2.684 2.684 0 0 0 2.682 2.686ZM279.097 18.3a2.684 2.684 0 0 0 2.683-2.686 2.684 2.684 0 0 0-2.683-2.686 2.684 2.684 0 0 0-2.682 2.686 2.684 2.684 0 0 0 2.682 2.686ZM279.097 29.005a2.684 2.684 0 0 0 2.683-2.686 2.684 2.684 0 0 0-2.683-2.686 2.684 2.684 0 0 0-2.682 2.686 2.684 2.684 0 0 0 2.682 2.686ZM279.097 39.71a2.684 2.684 0 0 0 2.683-2.687 2.684 2.684 0 0 0-2.683-2.686 2.684 2.684 0 0 0-2.682 2.686 2.684 2.684 0 0 0 2.682 2.686ZM267.896 7.595a2.684 2.684 0 0 0 2.683-2.686 2.684 2.684 0 0 0-2.683-2.686 2.684 2.684 0 0 0-2.683 2.686 2.684 2.684 0 0 0 2.683 2.686ZM267.896 18.3a2.684 2.684 0 0 0 2.683-2.686 2.684 2.684 0 0 0-2.683-2.686 2.684 2.684 0 0 0-2.683 2.686 2.684 2.684 0 0 0 2.683 2.686ZM267.896 29.005a2.684 2.684 0 0 0 2.683-2.686 2.684 2.684 0 0 0-2.683-2.686 2.684 2.684 0 0 0-2.683 2.686 2.684 2.684 0 0 0 2.683 2.686ZM267.896 39.71a2.684 2.684 0 0 0 2.683-2.687 2.684 2.684 0 0 0-2.683-2.686 2.684 2.684 0 0 0-2.683 2.686 2.684 2.684 0 0 0 2.683 2.686Z" fill="#F2F2F2"/><path d="M278.705 100.202a4.58 4.58 0 0 1 .267-3.726 4.57 4.57 0 0 1 2.955-2.281c.199-.047.4-.08.602-.099l10.083-17.693-2.546-4.378 6.337-4.895 4.849 6.742a4.631 4.631 0 0 1-.108 5.527L287.302 97.14c.05.141.093.284.129.43a4.57 4.57 0 0 1-.689 3.672 4.556 4.556 0 0 1-3.194 1.931 4.547 4.547 0 0 1-.559.035 4.578 4.578 0 0 1-4.284-3.006ZM259.034 187.272l-5.086-.001-2.42-19.64h7.507l-.001 19.641Z" fill="#FFB8B8"/><path d="M250.315 185.817h9.809V192h-15.985a6.185 6.185 0 0 1 3.812-5.713 6.17 6.17 0 0 1 2.364-.47Z" fill="#2F2E41"/><path d="m300.935 187.272-5.086-.001-2.419-19.64h7.506l-.001 19.641Z" fill="#FFB8B8"/><path d="M292.216 185.817h9.809V192H286.04a6.182 6.182 0 0 1 6.176-6.183Z" fill="#2F2E41"/><path d="m297.814 68.086-11.419 4.344-2.788-7.753a4.643 4.643 0 0 1 2.075-5.606 4.629 4.629 0 0 1 5.917 1.156l6.215 7.86Z" fill="#FF5300"/><path d="m259.473 171.365-9.577-2.187a2.071 2.071 0 0 1-1.581-2.334c3.842-24.385 7.54-38.665 17.067-56.799.133-.338 1.621-7.201 2.592-11.748a2.065 2.065 0 0 1 1.748-2.087l17.858-2.751c.269-.094.554-.136.839-.126l.178.034-.002.175c-.002.182-.183.21-.251.22l-.237.037c.27.126.519.295.736.501 7.824 9.421 11.893 40.305 17.06 74.423a1.87 1.87 0 0 1-.54 1.515 2.036 2.036 0 0 1-1.468.664l-11.409.279a2.065 2.065 0 0 1-2.089-1.752l-7.685-44.462a1.65 1.65 0 0 0-3.11-.48c-6.199 12.641-11.981 23.573-17.676 45.383a2.05 2.05 0 0 1-1.988 1.547c-.156 0-.312-.017-.465-.052Z" fill="#2F2E41"/><path d="M268.769 98.805a2.08 2.08 0 0 1-.864-1.474c-1.463-13.669-.444-24.366 3.114-32.702a10.366 10.366 0 0 1 6.873-5.89l9.23-.466.048.023a10.806 10.806 0 0 1 5.899 11.458c-2.969 7.836-5.455 15.993-3.559 22.573a2.12 2.12 0 0 1-.201 1.654 2.022 2.022 0 0 1-1.292.96l-17.582 4.187a2.057 2.057 0 0 1-1.666-.323Z" fill="#FF5300"/><path d="m264.796 79.19-17.704-13.983c-.141.05-.285.092-.43.127a4.57 4.57 0 0 1-4.965-2.101 4.58 4.58 0 0 1 2.378-6.647 4.562 4.562 0 0 1 6.08 3.858l17.624 10.178 4.386-2.528 4.858 6.369-6.809 4.859a4.536 4.536 0 0 1-5.418-.133Z" fill="#FFB8B8"/><path d="m279.184 76.446-10.102-6.877 4.747-6.732a4.634 4.634 0 0 1 5.779-1.512 4.64 4.64 0 0 1 2.445 5.517l-2.869 9.604Z" fill="#FF5300"/><path d="M284.042 54.822c5.627 0 10.189-4.568 10.189-10.201 0-5.634-4.562-10.202-10.189-10.202-5.628 0-10.19 4.568-10.19 10.202 0 5.633 4.562 10.2 10.19 10.2Z" fill="#FFB8B8"/><path d="M280.306 43.101c-2.619 1.795-6.058 3.64-8.733 1.728-1.756-1.255-2.309-3.578-1.597-5.617 1.281-3.667 4.8-5.281 8.165-6.519 4.374-1.608 9.137-2.888 13.653-1.736s8.507 5.53 7.692 10.123c-.655 3.694-4.136 6.768-3.642 10.487.497 3.743 4.702 5.714 8.414 6.383 3.712.668 7.866.883 10.534 3.553 3.403 3.405 2.553 9.492-.649 13.087-3.202 3.595-8.035 5.225-12.717 6.333-6.204 1.468-12.915 2.24-18.807-.197-5.892-2.436-10.478-8.994-8.771-15.143.721-2.597 2.42-4.793 4.061-6.93 1.642-2.137 3.304-4.372 3.93-6.994.522-2.185.136-4.721-1.312-6.36a1.843 1.843 0 0 1-.246-2.155l.025-.043Z" fill="#2F2E41"/></g><defs><clipPath id="a"><path fill="#fff" d="M0 0h372v192H0z"/></clipPath></defs></svg>